# xmcd
#
# Track frame offsets:
#	150
#	8750
#	16293
#	26653
#	38567
#	48342
#	59680
#	71158
#	81871
#	93089
#	100065
#	110060
#	121113
#	131000
#	141524
#	152273
#	162868
#	170453
#
# Disc length: 2446 seconds
#
# Revision: 0
# Processed by: cddbd v1.5.2PL0 Copyright (c) Steve Scherf et al.
# Submitted via: EZCDAudioConverter 2.4.0.1
#
DISCID=e5098c12
DTITLE=Joe Tex and His Class Mates - New Orleans Rock And Roll
DYEAR=1900
DGENRE=Rock and Roll195
TTITLE0=Yum Yum Yum
TTITLE1=Open The Door
TTITLE2=They're Rockin'
TTITLE3=Just You And Me
TTITLE4=Put Your Confidence In Me
TTITLE5=More Than Just A Friend
TTITLE6=Boys Will Be Boys
TTITLE7=Don't Hold It Against Me
TTITLE8=Please Don't Tell 'Em
TTITLE9=Open The Door [alt]
TTITLE10=Cut It Out
TTITLE11=You Little Baby Face Thing
TTITLE12=Granny Stole The Show
TTITLE13=Charlie Brown Got Expelled
TTITLE14=Blessed Are These Tears
TTITLE15=Baby You're Right
TTITLE16=Competition
TTITLE17=Mother's Advice
EXTD=
EXTT0=
EXTT1=
EXTT2=
EXTT3=
EXTT4=
EXTT5=
EXTT6=
EXTT7=
EXTT8=
EXTT9=
EXTT10=
EXTT11=
EXTT12=
EXTT13=
EXTT14=
EXTT15=
EXTT16=
EXTT17=
PLAYORDER=
